<svg width="105" height="70" viewBox="0 0 105 70" fill="none" xmlns="http://www.w3.org/2000/svg">
<path d="M95 0H10C4.47715 0 0 4.47716 0 10V45.2941V60C0 65.5229 4.47716 70 10 70H11.7353H95C100.523 70 105 65.5229 105 60V10C105 4.47715 100.523 0 95 0Z" fill="#F1F1FE"/>
<path opacity="0.2" d="M76 7.99976H96" stroke="#6C6D8A" stroke-width="4" stroke-miterlimit="10"/>
<path d="M70 20.358L83.0062 16.5623L96 20.358V28.1421C96 36.3238 90.764 43.5874 83.0019 46.1737C75.2376 43.5874 70 36.3222 70 28.1385V20.358Z" fill="#DDDDED"/>
<path d="M77.4531 30.3134H88.5465" stroke="#F1F1FE" stroke-width="3" stroke-linecap="round"/>
<path d="M83 24.7667V35.8601" stroke="#F1F1FE" stroke-width="3" stroke-linecap="round"/>
<path opacity="0.2" d="M9 22.9998H39" stroke="#6C6D8A" stroke-width="4" stroke-miterlimit="10"/>
<path opacity="0.2" d="M9 42.9998H22" stroke="#6C6D8A" stroke-width="4" stroke-miterlimit="10"/>
<path opacity="0.2" d="M9 32.9998H46" stroke="#6C6D8A" stroke-width="4" stroke-miterlimit="10"/>
<path opacity="0.15" d="M9 57.9998L96 57.9998" stroke="#6C6D8A" stroke-width="10" stroke-miterlimit="10"/>
</svg>
