<svg width="197" height="38" viewBox="0 0 197 38" fill="none" xmlns="http://www.w3.org/2000/svg">
<g filter="url(#filter0_d_515_13879)">
<path d="M40.25 10.415H27.006V13.737H31.78V25.375H35.476V13.737H40.25V10.415ZM45.0023 14.419C41.5703 14.419 39.1283 16.773 39.1283 20.051C39.1283 23.351 41.5703 25.661 45.0023 25.661C48.4343 25.661 50.8543 23.351 50.8543 20.051C50.8543 16.773 48.4343 14.419 45.0023 14.419ZM45.0023 22.691C43.5063 22.691 42.4723 21.613 42.4723 20.051C42.4723 18.511 43.5063 17.411 45.0023 17.411C46.4763 17.411 47.5103 18.511 47.5103 20.051C47.5103 21.613 46.4763 22.691 45.0023 22.691ZM60.9443 21.943C60.3063 22.185 59.7343 22.383 59.0523 22.383C58.0183 22.383 57.3803 21.877 57.3803 20.777V17.763H61.0103V14.705H57.3803V11.075H53.8163V14.705H51.7263V17.763H53.8163V20.887C53.8163 23.769 55.5763 25.661 58.4803 25.661C59.0963 25.661 60.2403 25.595 61.3403 25.133L60.9443 21.943ZM70.495 14.705V15.255C69.703 14.727 68.757 14.419 67.569 14.419C64.687 14.419 62.267 16.839 62.267 20.029C62.267 23.197 64.687 25.661 67.569 25.661C68.757 25.661 69.703 25.331 70.495 24.803V25.375H74.059V14.705H70.495ZM68.295 22.625C66.843 22.625 65.765 21.503 65.765 20.029C65.765 18.555 66.843 17.433 68.295 17.433C69.065 17.433 69.813 17.631 70.495 18.379V21.679C69.813 22.427 69.065 22.625 68.295 22.625ZM76.4795 9.755V25.375H80.0655V9.755H76.4795ZM99.4315 13.693V10.415H88.2555V25.375H91.9735V20.095H98.3975V16.861H91.9735V13.693H99.4315ZM105.588 14.419C102.156 14.419 99.7143 16.773 99.7143 20.051C99.7143 23.351 102.156 25.661 105.588 25.661C109.02 25.661 111.44 23.351 111.44 20.051C111.44 16.773 109.02 14.419 105.588 14.419ZM105.588 22.691C104.092 22.691 103.058 21.613 103.058 20.051C103.058 18.511 104.092 17.411 105.588 17.411C107.062 17.411 108.096 18.511 108.096 20.051C108.096 21.613 107.062 22.691 105.588 22.691ZM118.758 14.419C115.326 14.419 112.884 16.773 112.884 20.051C112.884 23.351 115.326 25.661 118.758 25.661C122.19 25.661 124.61 23.351 124.61 20.051C124.61 16.773 122.19 14.419 118.758 14.419ZM118.758 22.691C117.262 22.691 116.228 21.613 116.228 20.051C116.228 18.511 117.262 17.411 118.758 17.411C120.232 17.411 121.266 18.511 121.266 20.051C121.266 21.613 120.232 22.691 118.758 22.691ZM134.7 21.943C134.062 22.185 133.49 22.383 132.808 22.383C131.774 22.383 131.136 21.877 131.136 20.777V17.763H134.766V14.705H131.136V11.075H127.572V14.705H125.482V17.763H127.572V20.887C127.572 23.769 129.332 25.661 132.236 25.661C132.852 25.661 133.996 25.595 135.096 25.133L134.7 21.943ZM149.362 22.185C146.92 22.185 145.226 20.381 145.226 17.895C145.226 15.409 146.92 13.605 149.362 13.605C151.342 13.605 152.662 14.749 153.058 16.619H156.886C156.402 12.747 153.454 10.129 149.384 10.129C144.874 10.129 141.464 13.385 141.464 17.895C141.464 22.405 144.874 25.661 149.384 25.661C153.454 25.661 156.402 23.043 156.886 19.171H153.058C152.662 21.041 151.342 22.185 149.362 22.185ZM166.53 14.705V15.255C165.738 14.727 164.792 14.419 163.604 14.419C160.722 14.419 158.302 16.839 158.302 20.029C158.302 23.197 160.722 25.661 163.604 25.661C164.792 25.661 165.738 25.331 166.53 24.803V25.375H170.094V14.705H166.53ZM164.33 22.625C162.878 22.625 161.8 21.503 161.8 20.029C161.8 18.555 162.878 17.433 164.33 17.433C165.1 17.433 165.848 17.631 166.53 18.379V21.679C165.848 22.427 165.1 22.625 164.33 22.625ZM179.775 14.529C178.191 14.529 177.047 15.035 176.101 15.849V14.705H172.515V25.375H176.101V19.259C176.937 18.445 178.037 17.983 179.775 17.917V14.529ZM186.298 14.419C182.998 14.419 180.732 16.795 180.732 20.029C180.732 23.285 183.064 25.661 186.562 25.661C189.07 25.661 191.05 24.363 191.688 22.273H188.08C187.75 22.669 187.288 22.845 186.496 22.845C185.044 22.845 184.318 21.987 184.076 20.887H191.798C192.326 17.103 190.06 14.419 186.298 14.419ZM186.386 17.059C187.596 17.059 188.366 17.609 188.564 18.841H184.12C184.406 17.763 185.132 17.059 186.386 17.059Z" fill="#6A6EF4"/>
<path fill-rule="evenodd" clip-rule="evenodd" d="M15.309 5.94547C15.4881 6.01456 15.6808 6.05092 15.8744 6.05092C16.8944 6.05092 17.8808 5.14456 18.3262 3.7991C18.5735 3.05183 18.6144 2.26728 18.4353 1.58909C18.2426 0.847275 17.8217 0.318183 17.2417 0.100909C17.0619 0.0353124 16.8722 0.00117678 16.6808 0C15.6562 0 14.669 0.906366 14.229 2.24728C13.9717 3.02092 13.9362 3.82637 14.1335 4.51365C14.3335 5.22547 14.749 5.73365 15.309 5.94547ZM16.4681 9.99367C16.5426 8.96639 16.2953 8.13912 15.7299 7.51911C14.7153 6.40729 12.989 6.01366 11.2908 6.01366C10.1217 6.01366 8.96533 6.20002 8.06351 6.46729C7.09805 6.75275 6.20532 7.23548 5.5835 8.01275C4.39532 9.4973 4.83259 11.6119 5.28078 13.2891C5.43764 13.877 5.62623 14.4642 5.8155 15.0535C6.23501 16.3597 6.6579 17.6764 6.74623 19.0346C6.75896 19.2301 6.76078 19.4255 6.75532 19.6219C6.73333 20.1932 6.67992 20.7628 6.59532 21.3282C6.55172 21.6489 6.50424 21.9692 6.45677 22.2894L6.45676 22.2894L6.45675 22.2895L6.45674 22.2896C6.41217 22.5902 6.3676 22.8908 6.32623 23.1919C6.23583 23.8068 6.17485 24.4257 6.1435 25.0464C6.11987 25.6064 6.13259 26.1746 6.24169 26.7264C6.33623 27.2064 6.51078 27.6783 6.81623 28.0664C7.38805 28.7919 8.29896 29.1019 9.23715 29.1019C10.2135 29.1019 11.2199 28.7664 11.9017 28.2146C13.0108 27.3183 13.4026 26.0737 13.199 24.7092C13.1715 24.5247 13.1436 24.3402 13.1157 24.1555C12.8948 22.696 12.6732 21.2311 12.6708 19.7519C12.6705 19.5337 12.6676 19.3114 12.6647 19.0865L12.6647 19.0863C12.6436 17.4334 12.6206 15.6367 13.5808 14.2428C13.9081 13.7683 14.3195 13.3549 14.7286 12.9439C15.5556 12.113 16.3732 11.2916 16.4681 9.99367ZM12.0771 4.5144C12.0044 4.5144 11.9244 4.5044 11.8644 4.48713C11.588 4.41258 11.3444 4.20894 11.1799 3.90894C10.9426 3.48531 10.8771 2.89803 10.9917 2.31076C11.179 1.40621 11.739 0.766208 12.3835 0.766208C12.4569 0.766386 12.5301 0.774617 12.6017 0.790753C13.2953 0.971663 13.6771 1.92621 13.4644 2.96076C13.2908 3.84712 12.6926 4.5144 12.0771 4.5144ZM9.56265 4.68626C9.31719 4.68626 9.06992 4.57263 8.86628 4.36172C8.57173 4.06263 8.38264 3.58717 8.34355 3.07171C8.28719 2.18626 8.68901 1.46807 9.33719 1.43626H9.3481C9.96356 1.43626 10.4945 2.14171 10.5536 3.04717C10.6117 3.82626 10.2654 4.51899 9.75265 4.6599C9.69461 4.67621 9.63474 4.68507 9.57446 4.68626H9.56265ZM7.32639 5.53194C7.25728 5.55182 7.18555 5.56102 7.11366 5.55921C6.59366 5.55921 6.07366 5.04466 5.90366 4.36194C5.81402 3.99967 5.82948 3.61937 5.9482 3.26557C6.07729 2.92557 6.31457 2.67648 6.61275 2.59648C6.68695 2.57528 6.76376 2.56457 6.84093 2.56466C7.37003 2.56466 7.86275 3.06284 8.03548 3.7683C8.14457 4.22375 8.10094 4.68921 7.90639 5.03921C7.84779 5.15611 7.76623 5.25999 7.66658 5.34465C7.56692 5.42931 7.45122 5.49301 7.32639 5.53194ZM5.20087 6.77739L5.03814 6.79921C4.60177 6.79921 4.18632 6.38466 4.04632 5.82375C3.97268 5.50648 3.98723 5.1983 4.08723 4.93375C4.19086 4.65284 4.38905 4.44648 4.61723 4.38284L4.81541 4.35011C5.24632 4.35011 5.66269 4.76375 5.80087 5.33102C5.87541 5.63921 5.86541 5.95648 5.76632 6.22103C5.66269 6.50194 5.4645 6.70376 5.20087 6.77739Z" fill="#6A6EF4"/>
</g>
<defs>
<filter id="filter0_d_515_13879" x="0" y="0" width="196.326" height="37.1018" filterUnits="userSpaceOnUse" color-interpolation-filters="sRGB">
<feFlood flood-opacity="0" result="BackgroundImageFix"/>
<feColorMatrix in="SourceAlpha" type="matrix" values="0 0 0 0 0 0 0 0 0 0 0 0 0 0 0 0 0 0 127 0" result="hardAlpha"/>
<feOffset dy="4"/>
<feGaussianBlur stdDeviation="2"/>
<feComposite in2="hardAlpha" operator="out"/>
<feColorMatrix type="matrix" values="0 0 0 0 0 0 0 0 0 0 0 0 0 0 0 0 0 0 0.25 0"/>
<feBlend mode="normal" in2="BackgroundImageFix" result="effect1_dropShadow_515_13879"/>
<feBlend mode="normal" in="SourceGraphic" in2="effect1_dropShadow_515_13879" result="shape"/>
</filter>
</defs>
</svg>
