<svg width="119" height="120" viewBox="0 0 119 120" fill="none" xmlns="http://www.w3.org/2000/svg">
<rect y="34.1768" width="118.481" height="60" rx="7" fill="#DDDDED"/>
<path d="M18.2285 24.4307C18.2285 18.9078 22.7057 14.4307 28.2285 14.4307H91.0133C96.5362 14.4307 101.013 18.9078 101.013 24.4307V34.1775H18.2285V24.4307Z" fill="#C9C9DC"/>
<path d="M29.6211 0H88.8616V34.1772H29.6211V0Z" fill="#FFF4EE"/>
<path d="M14.4297 34.1768H104.05V59.5565C104.05 62.3179 101.811 64.5565 99.0499 64.5565H19.4297C16.6683 64.5565 14.4297 62.3179 14.4297 59.5565V34.1768Z" fill="#F1F1FE"/>
<rect x="47.8477" y="47.0889" width="22.7848" height="3.79747" rx="1.89873" fill="white"/>
<rect x="22.0254" y="74.4307" width="75.1899" height="4.55696" rx="2.27848" fill="#C9C9DC"/>
<path d="M28.8613 78.9873H89.6208V120H38.8613C33.3385 120 28.8613 115.523 28.8613 110V78.9873Z" fill="#FFF4EE"/>
<path fill-rule="evenodd" clip-rule="evenodd" d="M42.5308 112.405C42.5308 116.343 39.5333 119.581 35.6953 119.963V120H90.2523C95.7751 120 100.252 115.523 100.252 110V104.811H42.5308V112.402C42.5308 112.403 42.5308 112.404 42.5308 112.405Z" fill="#EDE8E5"/>
</svg>
