<svg width="73" height="125" viewBox="0 0 73 125" fill="none" xmlns="http://www.w3.org/2000/svg">
<path d="M15.4668 7.00049C15.4668 5.89592 16.3622 5.00049 17.4668 5.00049H24.1335C25.238 5.00049 26.1335 5.89592 26.1335 7.00049V20.6449H15.4668V7.00049Z" fill="#EB996E"/>
<rect x="15.9668" y="21.145" width="9.66667" height="14.6444" fill="#F4DFD4" stroke="#F4AB85"/>
<path d="M26.1338 4.00049C26.1338 2.89592 27.0292 2.00049 28.1338 2.00049H34.8005C35.905 2.00049 36.8005 2.89592 36.8005 4.00049V17.6449H26.1338V4.00049Z" fill="#EB996E"/>
<rect x="26.5" y="17.5005" width="10" height="23" fill="#F4DFD4" stroke="#F4AB85"/>
<path d="M36.7998 7.00049C36.7998 5.89592 37.6952 5.00049 38.7998 5.00049H45.4665C46.571 5.00049 47.4665 5.89592 47.4665 7.00049V20.6449H36.7998V7.00049Z" fill="#EB996E"/>
<rect x="37.2998" y="21.145" width="9.66667" height="14.6444" fill="#F4DFD4" stroke="#F4AB85"/>
<path d="M5 10.0005C5 8.89592 5.89543 8.00049 7 8.00049H13.6667C14.7712 8.00049 15.6667 8.89592 15.6667 10.0005V23.6449H5V10.0005Z" fill="#EB996E"/>
<rect x="14.9707" y="10.896" width="0.587048" height="2.05467" transform="rotate(57.3968 14.9707 10.896)" fill="white" fill-opacity="0.4"/>
<rect x="7.73145" y="13.9443" width="0.587048" height="2.05467" transform="rotate(57.3968 7.73145 13.9443)" fill="white" fill-opacity="0.4"/>
<rect x="11.6445" y="14.7051" width="0.587048" height="2.05467" transform="rotate(32.9906 11.6445 14.7051)" fill="white" fill-opacity="0.4"/>
<rect x="14.5322" y="17.3804" width="0.774167" height="1.5134" transform="rotate(69.5365 14.5322 17.3804)" fill="white" fill-opacity="0.4"/>
<rect x="13.4961" y="14.6899" width="0.587048" height="1.21159" transform="rotate(-30 13.4961 14.6899)" fill="white" fill-opacity="0.4"/>
<rect x="7.5791" y="8.64502" width="0.587048" height="1.21159" transform="rotate(-30 7.5791 8.64502)" fill="white" fill-opacity="0.4"/>
<rect x="7.38477" y="18.4082" width="0.459538" height="2.00876" transform="rotate(27.7209 7.38477 18.4082)" fill="white" fill-opacity="0.4"/>
<rect x="9.64551" y="18.3428" width="0.459538" height="2.00876" transform="rotate(-24.1887 9.64551 18.3428)" fill="white" fill-opacity="0.4"/>
<rect x="13.1133" y="23.1978" width="0.459538" height="2.00876" transform="rotate(-8.88161 13.1133 23.1978)" fill="white" fill-opacity="0.4"/>
<rect x="13.123" y="7.00049" width="0.459538" height="1.39041" transform="rotate(27.7209 13.123 7.00049)" fill="white" fill-opacity="0.4"/>
<rect x="13.2773" y="20.2412" width="0.459538" height="1.24085" transform="rotate(-4.02015 13.2773 20.2412)" fill="white" fill-opacity="0.4"/>
<rect x="10.9297" y="11.4355" width="0.459538" height="1.24085" transform="rotate(-4.02015 10.9297 11.4355)" fill="white" fill-opacity="0.4"/>
<rect x="16.3164" y="17.2871" width="0.587048" height="2.05467" transform="rotate(-122.603 16.3164 17.2871)" fill="white" fill-opacity="0.4"/>
<rect x="23.5557" y="14.2388" width="0.587048" height="2.05467" transform="rotate(-122.603 23.5557 14.2388)" fill="white" fill-opacity="0.4"/>
<rect x="19.6426" y="13.478" width="0.587048" height="2.05467" transform="rotate(-147.009 19.6426 13.478)" fill="white" fill-opacity="0.4"/>
<rect x="17.791" y="13.4932" width="0.587048" height="1.21159" transform="rotate(150 17.791 13.4932)" fill="white" fill-opacity="0.4"/>
<rect x="23.708" y="19.5381" width="0.587048" height="1.21159" transform="rotate(150 23.708 19.5381)" fill="white" fill-opacity="0.4"/>
<rect x="23.9023" y="9.7749" width="0.459538" height="2.00876" transform="rotate(-152.279 23.9023 9.7749)" fill="white" fill-opacity="0.4"/>
<rect x="21.6416" y="9.84033" width="0.459538" height="2.00876" transform="rotate(155.811 21.6416 9.84033)" fill="white" fill-opacity="0.4"/>
<rect x="18.1738" y="4.98535" width="0.459538" height="2.00876" transform="rotate(171.118 18.1738 4.98535)" fill="white" fill-opacity="0.4"/>
<rect x="18.1641" y="20.1826" width="0.459538" height="1.39041" transform="rotate(-152.279 18.1641 20.1826)" fill="white" fill-opacity="0.4"/>
<rect x="18.0098" y="7.94189" width="0.459538" height="1.24085" transform="rotate(175.98 18.0098 7.94189)" fill="white" fill-opacity="0.4"/>
<rect x="20.3574" y="16.7476" width="0.459538" height="1.24085" transform="rotate(175.98 20.3574 16.7476)" fill="white" fill-opacity="0.4"/>
<rect x="35.9707" y="2.896" width="0.587048" height="2.05467" transform="rotate(57.3968 35.9707 2.896)" fill="white" fill-opacity="0.4"/>
<rect x="28.7314" y="5.94434" width="0.587048" height="2.05467" transform="rotate(57.3968 28.7314 5.94434)" fill="white" fill-opacity="0.4"/>
<rect x="32.6445" y="6.70508" width="0.587048" height="2.05467" transform="rotate(32.9906 32.6445 6.70508)" fill="white" fill-opacity="0.4"/>
<rect x="34.4961" y="6.68994" width="0.587048" height="1.21159" transform="rotate(-30 34.4961 6.68994)" fill="white" fill-opacity="0.4"/>
<rect x="28.5791" y="0.64502" width="0.587048" height="1.21159" transform="rotate(-30 28.5791 0.64502)" fill="white" fill-opacity="0.4"/>
<rect x="28.3848" y="10.4082" width="0.459538" height="2.00876" transform="rotate(27.7209 28.3848 10.4082)" fill="white" fill-opacity="0.4"/>
<rect x="29.6455" y="13.3428" width="0.459538" height="2.00876" transform="rotate(-24.1887 29.6455 13.3428)" fill="white" fill-opacity="0.4"/>
<rect x="34.1133" y="15.1978" width="0.459538" height="2.00876" transform="rotate(-8.88161 34.1133 15.1978)" fill="white" fill-opacity="0.4"/>
<rect x="34.123" y="0.000488281" width="0.459538" height="1.39041" transform="rotate(27.7209 34.123 0.000488281)" fill="white" fill-opacity="0.4"/>
<rect x="34.2773" y="12.2412" width="0.459538" height="1.24085" transform="rotate(-4.02015 34.2773 12.2412)" fill="white" fill-opacity="0.4"/>
<rect x="31.9297" y="3.43555" width="0.459538" height="1.24085" transform="rotate(-4.02015 31.9297 3.43555)" fill="white" fill-opacity="0.4"/>
<rect x="45.9707" y="8.89551" width="0.587048" height="2.05467" transform="rotate(57.3968 45.9707 8.89551)" fill="white" fill-opacity="0.4"/>
<rect x="38.7314" y="11.9438" width="0.587048" height="2.05467" transform="rotate(57.3968 38.7314 11.9438)" fill="white" fill-opacity="0.4"/>
<rect x="42.6445" y="12.7046" width="0.587048" height="2.05467" transform="rotate(32.9906 42.6445 12.7046)" fill="white" fill-opacity="0.4"/>
<rect x="44.4961" y="12.6895" width="0.587048" height="1.21159" transform="rotate(-30 44.4961 12.6895)" fill="white" fill-opacity="0.4"/>
<rect x="38.5791" y="6.64453" width="0.587048" height="1.21159" transform="rotate(-30 38.5791 6.64453)" fill="white" fill-opacity="0.4"/>
<rect x="38.3848" y="16.4077" width="0.459538" height="2.00876" transform="rotate(27.7209 38.3848 16.4077)" fill="white" fill-opacity="0.4"/>
<rect x="41.6455" y="18.3423" width="0.459538" height="2.00876" transform="rotate(-24.1887 41.6455 18.3423)" fill="white" fill-opacity="0.4"/>
<rect x="44.1133" y="21.1973" width="0.459538" height="2.00876" transform="rotate(-8.88161 44.1133 21.1973)" fill="white" fill-opacity="0.4"/>
<rect x="44.123" y="6" width="0.459538" height="1.39041" transform="rotate(27.7209 44.123 6)" fill="white" fill-opacity="0.4"/>
<rect x="44.2773" y="18.2407" width="0.459538" height="1.24085" transform="rotate(-4.02015 44.2773 18.2407)" fill="white" fill-opacity="0.4"/>
<rect x="41.9297" y="9.43506" width="0.459538" height="1.24085" transform="rotate(-4.02015 41.9297 9.43506)" fill="white" fill-opacity="0.4"/>
<rect x="5.2998" y="23.9893" width="9.66667" height="14.6444" fill="#F4DFD4" stroke="#F4AB85"/>
<path d="M47.4668 9.84522C47.4668 8.74065 48.3622 7.84521 49.4668 7.84521H56.1335C57.238 7.84521 58.1335 8.74065 58.1335 9.84521V23.4897H47.4668V9.84522Z" fill="#EB996E"/>
<rect x="47.9668" y="23.9893" width="9.66667" height="14.6444" fill="#F4DFD4" stroke="#F4AB85"/>
<path d="M58.1328 5.00049C58.1328 3.89592 59.0282 3.00049 60.1328 3.00049H66.7995C67.904 3.00049 68.7995 3.89592 68.7995 5.00049V18.6449H58.1328V5.00049Z" fill="#EB996E"/>
<rect x="58.6328" y="19.145" width="9.66667" height="14.6444" fill="#F4DFD4" stroke="#F4AB85"/>
<rect x="48" y="24.0005" width="10" height="4" fill="#F4AB85"/>
<rect x="59" y="19.0005" width="9" height="4" fill="#F4AB85"/>
<rect x="48.3164" y="19.2866" width="0.587048" height="2.05467" transform="rotate(-122.603 48.3164 19.2866)" fill="white" fill-opacity="0.4"/>
<rect x="55.5557" y="16.2383" width="0.587048" height="2.05467" transform="rotate(-122.603 55.5557 16.2383)" fill="white" fill-opacity="0.4"/>
<rect x="51.6426" y="15.4775" width="0.587048" height="2.05467" transform="rotate(-147.009 51.6426 15.4775)" fill="white" fill-opacity="0.4"/>
<rect x="49.791" y="15.4927" width="0.587048" height="1.21159" transform="rotate(150 49.791 15.4927)" fill="white" fill-opacity="0.4"/>
<rect x="55.708" y="21.5376" width="0.587048" height="1.21159" transform="rotate(150 55.708 21.5376)" fill="white" fill-opacity="0.4"/>
<rect x="55.9023" y="11.7744" width="0.459538" height="2.00876" transform="rotate(-152.279 55.9023 11.7744)" fill="white" fill-opacity="0.4"/>
<rect x="52.6416" y="9.83984" width="0.459538" height="2.00876" transform="rotate(155.811 52.6416 9.83984)" fill="white" fill-opacity="0.4"/>
<rect x="50.1738" y="6.98486" width="0.459538" height="2.00876" transform="rotate(171.118 50.1738 6.98486)" fill="white" fill-opacity="0.4"/>
<rect x="50.1641" y="22.1821" width="0.459538" height="1.39041" transform="rotate(-152.279 50.1641 22.1821)" fill="white" fill-opacity="0.4"/>
<rect x="50.0098" y="9.94141" width="0.459538" height="1.24085" transform="rotate(175.98 50.0098 9.94141)" fill="white" fill-opacity="0.4"/>
<rect x="52.3574" y="18.7471" width="0.459538" height="1.24085" transform="rotate(175.98 52.3574 18.7471)" fill="white" fill-opacity="0.4"/>
<rect x="67.9707" y="3.89551" width="0.587048" height="2.05467" transform="rotate(57.3968 67.9707 3.89551)" fill="white" fill-opacity="0.4"/>
<rect x="60.7314" y="6.94385" width="0.587048" height="2.05467" transform="rotate(57.3968 60.7314 6.94385)" fill="white" fill-opacity="0.4"/>
<rect x="64.6445" y="7.70459" width="0.587048" height="2.05467" transform="rotate(32.9906 64.6445 7.70459)" fill="white" fill-opacity="0.4"/>
<rect x="66.4961" y="7.68945" width="0.587048" height="1.21159" transform="rotate(-30 66.4961 7.68945)" fill="white" fill-opacity="0.4"/>
<rect x="60.5791" y="1.64453" width="0.587048" height="1.21159" transform="rotate(-30 60.5791 1.64453)" fill="white" fill-opacity="0.4"/>
<rect x="60.3848" y="11.4077" width="0.459538" height="2.00876" transform="rotate(27.7209 60.3848 11.4077)" fill="white" fill-opacity="0.4"/>
<rect x="63.6455" y="13.3423" width="0.459538" height="2.00876" transform="rotate(-24.1887 63.6455 13.3423)" fill="white" fill-opacity="0.4"/>
<rect x="66.1133" y="16.1973" width="0.459538" height="2.00876" transform="rotate(-8.88161 66.1133 16.1973)" fill="white" fill-opacity="0.4"/>
<rect x="66.123" y="1" width="0.459538" height="1.39041" transform="rotate(27.7209 66.123 1)" fill="white" fill-opacity="0.4"/>
<rect x="66.2773" y="13.2407" width="0.459538" height="1.24085" transform="rotate(-4.02015 66.2773 13.2407)" fill="white" fill-opacity="0.4"/>
<rect x="63.9297" y="4.43506" width="0.459538" height="1.24085" transform="rotate(-4.02015 63.9297 4.43506)" fill="white" fill-opacity="0.4"/>
<rect y="49.8003" width="72.8" height="75.2" rx="2" fill="#FFF4EE"/>
<path d="M2.40039 23C2.40039 21.8954 3.29582 21 4.40039 21H11.6441C12.4866 21 13.2388 21.528 13.5251 22.3203L17.4852 33.2797C17.7715 34.072 18.5237 34.6 19.3662 34.6H53.4546C54.2778 34.6 55.0169 34.0956 55.317 33.329L59.6457 22.271C59.9458 21.5044 60.6849 21 61.5081 21H69.2004C70.305 21 71.2004 21.8954 71.2004 23V56.6C71.2004 57.7046 70.305 58.6 69.2004 58.6H4.40039C3.29582 58.6 2.40039 57.7046 2.40039 56.6V23Z" fill="#FFF4EE"/>
<path d="M0 51.8003C0 50.6957 0.89543 49.8003 2 49.8003H70.8C71.9046 49.8003 72.8 50.6957 72.8 51.8003V108.2L36.4 84.2003L0 108.2V51.8003Z" fill="#E8505B"/>
<rect x="13.5996" y="60.2002" width="45.6" height="14.4" rx="7.2" fill="#FFF4EE"/>
<rect y="118.6" width="72.8" height="3.2" fill="#E8505B"/>
</svg>
