<svg width="25" height="25" viewBox="0 0 25 25" fill="none" xmlns="http://www.w3.org/2000/svg">
<path fill-rule="evenodd" clip-rule="evenodd" d="M12.5 21.3541C17.6777 21.3541 21.875 17.0197 21.875 14.0624C21.875 11.1052 17.6777 6.77075 12.5 6.77075C7.32233 6.77075 3.125 11.1082 3.125 14.0624C3.125 17.0167 7.32233 21.3541 12.5 21.3541Z" stroke="#6C6D8A" stroke-width="1.5" stroke-linejoin="round"/>
<path d="M12.5 17.1875C14.2259 17.1875 15.625 15.7884 15.625 14.0625C15.625 12.3366 14.2259 10.9375 12.5 10.9375C10.7741 10.9375 9.375 12.3366 9.375 14.0625C9.375 15.7884 10.7741 17.1875 12.5 17.1875Z" stroke="#6C6D8A" stroke-width="1.5" stroke-linejoin="round"/>
<path d="M6.9082 5.86768L8.25954 7.75321" stroke="#6C6D8A" stroke-width="1.5" stroke-linecap="round"/>
<path d="M18.5547 6.09912L17.2034 7.98465" stroke="#6C6D8A" stroke-width="1.5" stroke-linecap="round"/>
<path d="M12.5039 3.64575V6.77075" stroke="#6C6D8A" stroke-width="1.5" stroke-linecap="round"/>
</svg>
