<svg width="25" height="25" viewBox="0 0 25 25" fill="none" xmlns="http://www.w3.org/2000/svg">
<path d="M12.5007 22.9167C15.3771 22.9167 17.9813 21.7508 19.8663 19.8657C21.7514 17.9807 22.9173 15.3765 22.9173 12.5C22.9173 9.62353 21.7514 7.01936 19.8663 5.13431C17.9813 3.24927 15.3771 2.08334 12.5007 2.08334C9.62417 2.08334 7.02 3.24927 5.13496 5.13431C3.24991 7.01936 2.08398 9.62353 2.08398 12.5C2.08398 15.3765 3.24991 17.9807 5.13496 19.8657C7.02 21.7508 9.62417 22.9167 12.5007 22.9167Z" stroke="#6C6D8A" stroke-width="1.5" stroke-linejoin="round"/>
<path fill-rule="evenodd" clip-rule="evenodd" d="M12.4993 5.72918C13.2185 5.72918 13.8014 6.31214 13.8014 7.03126C13.8014 7.75038 13.2185 8.33334 12.4993 8.33334C11.7802 8.33334 11.1973 7.75038 11.1973 7.03126C11.1973 6.31214 11.7802 5.72918 12.4993 5.72918Z" fill="#6C6D8A"/>
<path d="M12.7604 17.7083V10.4167H12.2396H11.7188" stroke="#6C6D8A" stroke-width="1.5" stroke-linecap="round" stroke-linejoin="round"/>
<path d="M10.9375 17.7083H14.5833" stroke="#6C6D8A" stroke-width="1.5" stroke-linecap="round" stroke-linejoin="round"/>
</svg>
